<?xml version="1.0" encoding="UTF-8"?>
<svg id="Layer_1" data-name="Layer 1" xmlns="http://www.w3.org/2000/svg" viewBox="0 0 512 512">
  <defs>
    <style>
      .cls-1 {
        fill: #2e3440;
      }

      .cls-1, .cls-2 {
        stroke-width: 0px;
      }

      .cls-2 {
        fill: #eceff4;
      }
    </style>
  </defs>
  <path class="cls-2" d="M452,512H60c-33.14,0-60-26.86-60-60V60C0,26.86,26.86,0,60,0h392c33.14,0,60,26.86,60,60v392c0,33.14-26.86,60-60,60Z"/>
  <path class="cls-1" d="M237.17,91.8c-37.99,4.95-70.2,20.62-96.62,46.19-22.3,22.27-37.99,48.67-45.42,79.18-3.3,14.02-4.13,23.92-4.13,38.77,0,27.22,5.78,49.49,17.34,74.24,12.39,24.75,31.38,46.19,55.33,62.69,31.38,21.45,71.85,31.34,107.36,27.22,41.29-4.95,74.32-19.8,102.4-48.67,37.99-37.94,53.68-87.43,45.42-142.7-4.95-32.17-23.12-67.64-47.07-90.73-23.12-21.45-50.38-36.29-80.11-42.89-16.52-4.12-38.81-4.95-54.5-3.3ZM276.81,113.24c44.59,6.6,85.06,35.47,105.71,76.71,6.61,12.37,10.74,27.22,13.21,41.24,1.65,9.9,1.65,35.47,0,44.54-4.13,23.92-12.39,43.72-27.25,63.51-2.48,3.3-8.26,9.9-14.04,15.67l-9.08,9.07v9.9l-1.65-6.6c-2.48-8.25-4.13-13.2-6.61-16.5-.83-1.65-2.48-3.3-2.48-3.3l3.3-3.3c3.3-2.47,8.26-7.42,10.74-11.55.83-1.65,2.48-2.47,3.3-2.47,3.3-.82,6.61-4.95,7.43-7.42.83-3.3.83-4.95-1.65-7.42l-1.65-2.47,1.65-6.6q1.65-6.6,0-15.67c-.83-5.77-.83-10.72-.83-11.55,0-2.47-4.96-11.55-8.26-17.32-6.61-9.07-9.08-11.55-18.17-15.67-10.74-5.77-14.86-6.6-25.6-5.77-9.91,0-17.34,2.47-24.77,5.77-7.43,3.3-15.69,11.55-23.95,23.92-2.48,4.12-3.3,4.95-3.3,8.25s-.83,5.77-2.48,10.72c-2.48,8.25-2.48,10.72,1.65,17.32,1.65,2.47,2.48,4.95,2.48,5.77,0,0-.83,1.65-1.65,2.47-3.3,3.3-3.3,9.07,0,13.2,1.65,2.47,6.61,4.12,8.26,3.3,0,0,0-1.65-.83-3.3q-1.65-4.95.83,0c4.96,9.9,10.74,15.67,20.65,20.62,7.43,3.3,14.04,4.95,23.12,5.77,4.13,0,6.61.82,6.61.82-4.13,1.65-21.47-.82-28.9-4.12l-4.13-1.65-.83,1.65c-2.48,3.3-6.61,13.2-8.26,17.32-.83,2.47-1.65,7.42-1.65,11.55-1.65,11.55-1.65,13.2-3.3,5.77-2.48-11.55-17.34-65.99-18.99-69.29,0-.82-4.13-1.65-9.08-3.3-4.96-.82-9.91-2.47-11.56-3.3-1.65-.82-3.3-.82-3.3-.82,0,0,.83,1.65,2.48,4.12,1.65,1.65,3.3,4.95,4.96,6.6,3.3,4.95,9.91,19.8,11.56,25.57,2.48,6.6,1.65,6.6-4.96,12.37-2.48,2.47-4.96,4.12-4.96,4.95s2.48,3.3,6.61,6.6c5.78,5.77,6.61,5.77,5.78,8.25l-.83,1.65v-1.65c0-1.65-1.65-3.3-6.61-8.25-3.3-3.3-6.61-6.6-6.61-6.6,0-.82,2.48-2.47,4.96-4.95,6.61-5.77,6.61-6.6,4.13-13.2-4.96-12.37-14.86-31.34-18.99-34.64-.83-.82-1.65-2.47-1.65-4.12,0-2.47.83-3.3,4.13-4.12,3.3-.82,6.61-3.3,8.26-6.6,1.65-2.47,2.48-3.3,7.43-4.12,3.3-.82,4.96-1.65,4.96-2.47,0,0-.83-1.65-2.48-3.3-2.48-3.3-3.3-5.77-1.65-6.6.83,0,2.48-.82,4.96-.82s4.13-.82,4.13-.82c0,0,0-2.47-1.65-4.95,3.3-4.12,2.48-7.42,2.48-7.42,0-.82,1.65-1.65,3.3-1.65,4.13-1.65,12.39-4.95,12.39-5.77,0,0-2.48-1.65-4.96-3.3-5.78-3.3-10.74-7.42-9.91-8.25,0,0,2.48-.82,4.96-1.65,5.78-1.65,12.39-4.95,17.34-8.25,2.48-1.65,4.13-2.47,4.13-2.47,0,0-17.34-7.42-18.99-8.25-.83,0-.83-.82-.83-1.65s4.13-4.95,9.08-9.07,8.26-8.25,8.26-8.25c0-.82-4.13-.82-15.69-2.47-4.13-.82-7.43-1.65-8.26-1.65,0,0,2.48-5.77,6.61-12.37,6.61-10.72,7.43-13.2,6.61-13.2,0,0-4.96,1.65-11.56,4.12-9.08,3.3-11.56,4.12-12.39,3.3-1.65-1.65-2.48-11.55-2.48-21.45v-9.07l-4.13,2.47c-5.78,3.3-14.04,9.07-17.34,14.02-1.65,1.65-2.48,3.3-3.3,3.3,0,0-2.48-3.3-5.78-6.6-4.96-6.6-12.39-14.85-13.21-14.85,0,0-.83,2.47-.83,5.77-.83,9.07-4.13,20.62-5.78,20.62-.83,0-3.3-1.65-6.61-2.47-5.78-2.47-14.04-4.95-16.52-4.95-.83,0,0,.82,1.65,4.95,2.48,5.77,4.96,14.02,4.96,17.32v1.65l-5.78.82c-16.52,1.65-23.95,1.65-23.95,2.47,0,0,2.48,3.3,5.78,6.6,6.61,6.6,10.74,13.2,10.74,15.67,0,.82-3.3,3.3-9.91,8.25-4.95,4.12-9.91,7.42-9.91,7.42,0,0,.83.82,1.65.82,6.61,1.65,9.91,2.47,12.39,4.12,3.3,1.65,6.61,4.95,8.26,7.42l1.65,1.65-8.26,6.6c-5.78,5.77-6.61,7.42-5.78,7.42.83.82,4.13,1.65,8.26,3.3,4.13,1.65,7.43,2.47,8.26,3.3,0,0,0,3.3-1.65,8.25-.83,4.12-1.65,7.42-1.65,8.25s10.74,0,12.39-.82,2.48.82,2.48,5.77c0,3.3.83,5.77.83,5.77.83,0,7.43-2.47,7.43-3.3l-1.65-3.3c-4.13-6.6-7.43-14.02-9.08-25.57-1.65-7.42-2.48-14.02-1.65-14.02,0,0,.83,1.65.83,4.12,1.65,14.02,7.43,32.17,13.21,37.94,1.65,1.65,4.96,3.3,8.26,4.95l4.96,2.47v4.95l-14.04,4.95-14.04,4.95-1.65,4.12c-.83,2.47-3.3,11.55-6.61,21.45-4.95,18.15-6.61,22.27-5.78,17.32,0-2.47,0-3.3-3.3-6.6-18.99-21.45-31.38-47.02-35.51-76.71-1.65-10.72-1.65-33.82,0-44.54,5.78-29.69,17.34-54.44,37.16-75.06,32.21-33.82,76.8-49.49,123.87-42.07ZM191.75,316.98c-4.13,9.07-12.39,32.17-11.56,32.99,0,.82,3.3,3.3,5.78,5.77,3.3,2.47,5.78,4.95,5.78,5.77s-.83,1.65-2.48,3.3-1.65,1.65-1.65.82c2.48-4.12,2.48-3.3-3.3-9.07-4.13-4.12-5.78-5.77-5.78-6.6,0-3.3,12.39-34.64,14.04-34.64,0-.82,0,0-.83,1.65Z"/>
</svg>